<svg width="163" height="163" viewBox="0 0 163 163" fill="none" xmlns="http://www.w3.org/2000/svg">
<rect width="163" height="163" fill="black"/>
<path d="M50.4588 80.3281H48.5923C48.5582 80.0866 48.4886 79.8722 48.3835 79.6847C48.2784 79.4943 48.1435 79.3324 47.9787 79.1989C47.8139 79.0653 47.6236 78.9631 47.4077 78.892C47.1946 78.821 46.9631 78.7855 46.7131 78.7855C46.2614 78.7855 45.8679 78.8977 45.5327 79.1222C45.1974 79.3437 44.9375 79.6676 44.7528 80.0938C44.5682 80.517 44.4759 81.0312 44.4759 81.6364C44.4759 82.2585 44.5682 82.7812 44.7528 83.2045C44.9403 83.6278 45.2017 83.9474 45.5369 84.1634C45.8722 84.3793 46.2599 84.4872 46.7003 84.4872C46.9474 84.4872 47.1761 84.4545 47.3864 84.3892C47.5994 84.3239 47.7884 84.2287 47.9531 84.1037C48.1179 83.9759 48.2543 83.821 48.3622 83.6392C48.473 83.4574 48.5497 83.25 48.5923 83.017L50.4588 83.0256C50.4105 83.4261 50.2898 83.8125 50.0966 84.1847C49.9063 84.554 49.6491 84.8849 49.3253 85.1776C49.0043 85.4673 48.6207 85.6974 48.1747 85.8679C47.7315 86.0355 47.2301 86.1193 46.6705 86.1193C45.892 86.1193 45.196 85.9432 44.5824 85.5909C43.9716 85.2386 43.4886 84.7287 43.1335 84.0611C42.7812 83.3935 42.6051 82.5852 42.6051 81.6364C42.6051 80.6847 42.7841 79.875 43.142 79.2074C43.5 78.5398 43.9858 78.0312 44.5994 77.6818C45.2131 77.3295 45.9034 77.1534 46.6705 77.1534C47.1761 77.1534 47.6449 77.2244 48.0767 77.3665C48.5114 77.5085 48.8963 77.7159 49.2315 77.9886C49.5668 78.2585 49.8395 78.5895 50.0497 78.9815C50.2628 79.3736 50.3991 79.8224 50.4588 80.3281ZM54.7053 86.1278C54.0433 86.1278 53.4709 85.9872 52.9879 85.706C52.5078 85.4219 52.1371 85.027 51.8757 84.5213C51.6143 84.0128 51.4837 83.4233 51.4837 82.7528C51.4837 82.0767 51.6143 81.4858 51.8757 80.9801C52.1371 80.4716 52.5078 80.0767 52.9879 79.7955C53.4709 79.5114 54.0433 79.3693 54.7053 79.3693C55.3672 79.3693 55.9382 79.5114 56.4183 79.7955C56.9013 80.0767 57.2734 80.4716 57.5348 80.9801C57.7962 81.4858 57.9268 82.0767 57.9268 82.7528C57.9268 83.4233 57.7962 84.0128 57.5348 84.5213C57.2734 85.027 56.9013 85.4219 56.4183 85.706C55.9382 85.9872 55.3672 86.1278 54.7053 86.1278ZM54.7138 84.7216C55.0149 84.7216 55.2663 84.6364 55.468 84.4659C55.6697 84.2926 55.8217 84.0568 55.924 83.7585C56.0291 83.4602 56.0817 83.1207 56.0817 82.7401C56.0817 82.3594 56.0291 82.0199 55.924 81.7216C55.8217 81.4233 55.6697 81.1875 55.468 81.0142C55.2663 80.8409 55.0149 80.7543 54.7138 80.7543C54.4098 80.7543 54.1541 80.8409 53.9467 81.0142C53.7422 81.1875 53.5874 81.4233 53.4822 81.7216C53.38 82.0199 53.3288 82.3594 53.3288 82.7401C53.3288 83.1207 53.38 83.4602 53.4822 83.7585C53.5874 84.0568 53.7422 84.2926 53.9467 84.4659C54.1541 84.6364 54.4098 84.7216 54.7138 84.7216ZM59.1072 86V79.4545H60.8374V80.6094H60.9141C61.0504 80.2259 61.2777 79.9233 61.5959 79.7017C61.9141 79.4801 62.2947 79.3693 62.7379 79.3693C63.1868 79.3693 63.5689 79.4815 63.8842 79.706C64.1996 79.9276 64.4098 80.2287 64.5149 80.6094H64.5831C64.7166 80.2344 64.9581 79.9347 65.3075 79.7102C65.6598 79.483 66.076 79.3693 66.5561 79.3693C67.1669 79.3693 67.6626 79.5639 68.0433 79.9531C68.4268 80.3395 68.6186 80.8878 68.6186 81.598V86H66.8075V81.956C66.8075 81.5923 66.7109 81.3196 66.5178 81.1378C66.3246 80.956 66.0831 80.8651 65.7933 80.8651C65.4638 80.8651 65.2067 80.9702 65.022 81.1804C64.8374 81.3878 64.745 81.6619 64.745 82.0028V86H62.9851V81.9176C62.9851 81.5966 62.8928 81.3409 62.7081 81.1506C62.5263 80.9602 62.2862 80.8651 61.9879 80.8651C61.7862 80.8651 61.6044 80.9162 61.4425 81.0185C61.2834 81.1179 61.157 81.2585 61.0632 81.4403C60.9695 81.6193 60.9226 81.8295 60.9226 82.071V86H59.1072ZM70.0526 86V79.4545H71.8679V86H70.0526ZM70.9645 78.6108C70.6946 78.6108 70.4631 78.5213 70.2699 78.3423C70.0795 78.1605 69.9844 77.9432 69.9844 77.6903C69.9844 77.4403 70.0795 77.2259 70.2699 77.0469C70.4631 76.8651 70.6946 76.7741 70.9645 76.7741C71.2344 76.7741 71.4645 76.8651 71.6548 77.0469C71.848 77.2259 71.9446 77.4403 71.9446 77.6903C71.9446 77.9432 71.848 78.1605 71.6548 78.3423C71.4645 78.5213 71.2344 78.6108 70.9645 78.6108ZM75.1374 82.2159V86H73.3221V79.4545H75.0522V80.6094H75.1289C75.2738 80.2287 75.5167 79.9276 75.8576 79.706C76.1985 79.4815 76.6119 79.3693 77.0977 79.3693C77.5522 79.3693 77.9485 79.4688 78.2866 79.6676C78.6246 79.8665 78.8874 80.1506 79.0749 80.5199C79.2624 80.8864 79.3562 81.3239 79.3562 81.8324V86H77.5408V82.1562C77.5437 81.7557 77.4414 81.4432 77.234 81.2188C77.0266 80.9915 76.7411 80.8778 76.3775 80.8778C76.1332 80.8778 75.9173 80.9304 75.7298 81.0355C75.5451 81.1406 75.4002 81.294 75.2951 81.4957C75.1928 81.6946 75.1403 81.9347 75.1374 82.2159ZM83.7358 88.5909C83.1477 88.5909 82.6435 88.5099 82.223 88.348C81.8054 88.1889 81.473 87.9716 81.2259 87.696C80.9787 87.4205 80.8182 87.1108 80.7443 86.767L82.4233 86.5412C82.4744 86.6719 82.5554 86.794 82.6662 86.9077C82.777 87.0213 82.9233 87.1122 83.1051 87.1804C83.2898 87.2514 83.5142 87.2869 83.7784 87.2869C84.1733 87.2869 84.4986 87.1903 84.7543 86.9972C85.0128 86.8068 85.142 86.4872 85.142 86.0384V84.8409H85.0653C84.9858 85.0227 84.8665 85.1946 84.7074 85.3565C84.5483 85.5185 84.3438 85.6506 84.0938 85.7528C83.8438 85.8551 83.5455 85.9062 83.1989 85.9062C82.7074 85.9062 82.2599 85.7926 81.8565 85.5653C81.456 85.3352 81.1364 84.9844 80.8977 84.5128C80.6619 84.0384 80.544 83.4389 80.544 82.7145C80.544 81.973 80.6648 81.3537 80.9062 80.8565C81.1477 80.3594 81.4688 79.9872 81.8693 79.7401C82.2727 79.4929 82.7145 79.3693 83.1946 79.3693C83.5611 79.3693 83.8679 79.4318 84.1151 79.5568C84.3622 79.679 84.5611 79.8324 84.7116 80.017C84.8651 80.1989 84.983 80.3778 85.0653 80.554H85.1335V79.4545H86.9361V86.0639C86.9361 86.6207 86.7997 87.0866 86.527 87.4616C86.2543 87.8366 85.8764 88.1179 85.3935 88.3054C84.9134 88.4957 84.3608 88.5909 83.7358 88.5909ZM83.7741 84.5426C84.0668 84.5426 84.3139 84.4702 84.5156 84.3253C84.7202 84.1776 84.8764 83.9673 84.9844 83.6946C85.0952 83.419 85.1506 83.0895 85.1506 82.706C85.1506 82.3224 85.0966 81.9901 84.9886 81.7088C84.8807 81.4247 84.7244 81.2045 84.5199 81.0483C84.3153 80.892 84.0668 80.8139 83.7741 80.8139C83.4759 80.8139 83.2244 80.8949 83.0199 81.0568C82.8153 81.2159 82.6605 81.4375 82.5554 81.7216C82.4503 82.0057 82.3977 82.3338 82.3977 82.706C82.3977 83.0838 82.4503 83.4105 82.5554 83.6861C82.6634 83.9588 82.8182 84.1705 83.0199 84.321C83.2244 84.4687 83.4759 84.5426 83.7741 84.5426ZM95.9265 79.7827C95.8924 79.4389 95.7461 79.1719 95.4876 78.9815C95.229 78.7912 94.8782 78.696 94.435 78.696C94.1339 78.696 93.8796 78.7386 93.6722 78.8239C93.4648 78.9062 93.3058 79.0213 93.195 79.169C93.087 79.3168 93.033 79.4844 93.033 79.6719C93.0273 79.8281 93.06 79.9645 93.131 80.081C93.2049 80.1974 93.3058 80.2983 93.4336 80.3835C93.5614 80.4659 93.7092 80.5384 93.8768 80.6009C94.0444 80.6605 94.2234 80.7116 94.4137 80.7543L95.1978 80.9418C95.5785 81.027 95.9279 81.1406 96.2461 81.2827C96.5643 81.4247 96.8398 81.5994 97.0728 81.8068C97.3058 82.0142 97.4862 82.2585 97.614 82.5398C97.7447 82.821 97.8114 83.1435 97.8143 83.5071C97.8114 84.0412 97.6751 84.5043 97.4052 84.8963C97.1381 85.2855 96.7518 85.5881 96.2461 85.804C95.7433 86.017 95.1367 86.1236 94.4265 86.1236C93.7219 86.1236 93.1083 86.0156 92.5856 85.7997C92.0657 85.5838 91.6594 85.2642 91.3668 84.8409C91.0771 84.4148 90.9251 83.8878 90.9109 83.2599H92.6964C92.7163 83.5526 92.8001 83.7969 92.9478 83.9929C93.0984 84.1861 93.2987 84.3324 93.5487 84.4318C93.8015 84.5284 94.087 84.5767 94.4052 84.5767C94.7177 84.5767 94.989 84.5312 95.2191 84.4403C95.4521 84.3494 95.6325 84.223 95.7603 84.0611C95.8881 83.8991 95.9521 83.7131 95.9521 83.5028C95.9521 83.3068 95.8938 83.142 95.7773 83.0085C95.6637 82.875 95.4961 82.7614 95.2745 82.6676C95.0558 82.5739 94.7873 82.4886 94.4691 82.4119L93.5188 82.1733C92.783 81.9943 92.2021 81.7145 91.7759 81.3338C91.3498 80.9531 91.1381 80.4403 91.141 79.7955C91.1381 79.267 91.2788 78.8054 91.5629 78.4105C91.8498 78.0156 92.2433 77.7074 92.7433 77.4858C93.2433 77.2642 93.8114 77.1534 94.4478 77.1534C95.0955 77.1534 95.6609 77.2642 96.1438 77.4858C96.6296 77.7074 97.0075 78.0156 97.2773 78.4105C97.5472 78.8054 97.6864 79.2628 97.695 79.7827H95.9265ZM101.979 86.1278C101.317 86.1278 100.744 85.9872 100.261 85.706C99.7813 85.4219 99.4105 85.027 99.1491 84.5213C98.8878 84.0128 98.7571 83.4233 98.7571 82.7528C98.7571 82.0767 98.8878 81.4858 99.1491 80.9801C99.4105 80.4716 99.7813 80.0767 100.261 79.7955C100.744 79.5114 101.317 79.3693 101.979 79.3693C102.641 79.3693 103.212 79.5114 103.692 79.7955C104.175 80.0767 104.547 80.4716 104.808 80.9801C105.07 81.4858 105.2 82.0767 105.2 82.7528C105.2 83.4233 105.07 84.0128 104.808 84.5213C104.547 85.027 104.175 85.4219 103.692 85.706C103.212 85.9872 102.641 86.1278 101.979 86.1278ZM101.987 84.7216C102.288 84.7216 102.54 84.6364 102.741 84.4659C102.943 84.2926 103.095 84.0568 103.197 83.7585C103.303 83.4602 103.355 83.1207 103.355 82.7401C103.355 82.3594 103.303 82.0199 103.197 81.7216C103.095 81.4233 102.943 81.1875 102.741 81.0142C102.54 80.8409 102.288 80.7543 101.987 80.7543C101.683 80.7543 101.428 80.8409 101.22 81.0142C101.016 81.1875 100.861 81.4233 100.756 81.7216C100.653 82.0199 100.602 82.3594 100.602 82.7401C100.602 83.1207 100.653 83.4602 100.756 83.7585C100.861 84.0568 101.016 84.2926 101.22 84.4659C101.428 84.6364 101.683 84.7216 101.987 84.7216ZM109.338 86.1278C108.676 86.1278 108.104 85.9872 107.621 85.706C107.141 85.4219 106.77 85.027 106.509 84.5213C106.247 84.0128 106.116 83.4233 106.116 82.7528C106.116 82.0767 106.247 81.4858 106.509 80.9801C106.77 80.4716 107.141 80.0767 107.621 79.7955C108.104 79.5114 108.676 79.3693 109.338 79.3693C110 79.3693 110.571 79.5114 111.051 79.7955C111.534 80.0767 111.906 80.4716 112.168 80.9801C112.429 81.4858 112.56 82.0767 112.56 82.7528C112.56 83.4233 112.429 84.0128 112.168 84.5213C111.906 85.027 111.534 85.4219 111.051 85.706C110.571 85.9872 110 86.1278 109.338 86.1278ZM109.347 84.7216C109.648 84.7216 109.899 84.6364 110.101 84.4659C110.303 84.2926 110.455 84.0568 110.557 83.7585C110.662 83.4602 110.714 83.1207 110.714 82.7401C110.714 82.3594 110.662 82.0199 110.557 81.7216C110.455 81.4233 110.303 81.1875 110.101 81.0142C109.899 80.8409 109.648 80.7543 109.347 80.7543C109.043 80.7543 108.787 80.8409 108.58 81.0142C108.375 81.1875 108.22 81.4233 108.115 81.7216C108.013 82.0199 107.962 82.3594 107.962 82.7401C107.962 83.1207 108.013 83.4602 108.115 83.7585C108.22 84.0568 108.375 84.2926 108.58 84.4659C108.787 84.6364 109.043 84.7216 109.347 84.7216ZM115.555 82.2159V86H113.74V79.4545H115.47V80.6094H115.547C115.692 80.2287 115.935 79.9276 116.276 79.706C116.616 79.4815 117.03 79.3693 117.516 79.3693C117.97 79.3693 118.366 79.4688 118.705 79.6676C119.043 79.8665 119.305 80.1506 119.493 80.5199C119.68 80.8864 119.774 81.3239 119.774 81.8324V86H117.959V82.1562C117.962 81.7557 117.859 81.4432 117.652 81.2188C117.445 80.9915 117.159 80.8778 116.795 80.8778C116.551 80.8778 116.335 80.9304 116.148 81.0355C115.963 81.1406 115.818 81.294 115.713 81.4957C115.611 81.6946 115.558 81.9347 115.555 82.2159Z" fill="#97F36B"/>
</svg>
