<svg width="173" height="60" viewBox="0 0 173 60" fill="none" xmlns="http://www.w3.org/2000/svg">
<path d="M51.6246 0H8.3754C3.7498 0 0 3.7498 0 8.3754V51.6246C0 56.2502 3.7498 60 8.3754 60H51.6246C56.2502 60 60 56.2502 60 51.6246V8.3754C60 3.7498 56.2502 0 51.6246 0Z" fill="#7575EA"/>
<path d="M29.999 34.4296C33.4227 34.4296 36.1982 31.6541 36.1982 28.2304C36.1982 24.8067 33.4227 22.0312 29.999 22.0312C26.5753 22.0312 23.7998 24.8067 23.7998 28.2304C23.7998 31.6541 26.5753 34.4296 29.999 34.4296Z" fill="#45D8BC"/>
<path d="M21.3781 22.5319L16.4478 17.6016C11.5649 23.8175 11.5663 32.6424 16.4478 38.8583L21.3781 33.928C19.1014 30.4871 19.1014 25.9728 21.3781 22.5319Z" fill="white"/>
<path d="M35.6971 19.612L40.6274 14.6817C34.4114 9.79882 25.5866 9.79882 19.3706 14.6817L24.3009 19.612C27.7418 17.3353 32.2562 17.3353 35.6971 19.612Z" fill="white"/>
<path d="M40.6274 41.7833L35.6957 36.8516C32.2548 39.1269 27.7418 39.1297 24.3009 36.853L19.3706 41.7833C20.7414 42.8609 22.2406 43.6999 23.8096 44.3015L29.999 52.0432L36.187 44.3029C37.756 43.7013 39.2552 42.8624 40.6274 41.7847V41.7833Z" fill="white"/>
<path d="M38.6187 33.9266L43.5504 38.8583C48.4332 32.6424 48.4318 23.8175 43.5504 17.6016L38.62 22.5319C40.8954 25.9728 40.894 30.4857 38.6187 33.9266Z" fill="white"/>
<path d="M71.7216 41.2747C70.3271 40.6786 69.2229 39.8201 68.4133 38.6992C67.6022 37.5783 67.1849 36.255 67.1611 34.7293H72.527C72.5982 35.7553 72.9611 36.5663 73.6186 37.161C74.2746 37.757 75.175 38.0557 76.3197 38.0557C77.4643 38.0557 78.4065 37.7751 79.0738 37.2154C79.741 36.6556 80.076 35.9214 80.076 35.0155C80.076 34.277 79.8485 33.6684 79.3962 33.191C78.9426 32.7136 78.3772 32.3381 77.6974 32.0645C77.0176 31.7909 76.081 31.4867 74.8889 31.153C73.2668 30.677 71.9491 30.2052 70.9371 29.7404C69.9236 29.2755 69.0526 28.572 68.3253 27.6297C67.5981 26.6875 67.2337 25.4298 67.2337 23.8567C67.2337 22.3784 67.6036 21.09 68.3421 19.9928C69.0805 18.897 70.1176 18.0553 71.4535 17.4704C72.7894 16.8869 74.3151 16.5938 76.0321 16.5938C78.6075 16.5938 80.7 17.2191 82.3094 18.4713C83.9189 19.7234 84.8067 21.4711 84.9742 23.7115H79.466C79.4186 22.853 79.0542 22.1439 78.3744 21.5827C77.6946 21.023 76.7942 20.7424 75.6733 20.7424C74.6948 20.7424 73.9145 20.9922 73.331 21.4934C72.7461 21.9945 72.4544 22.7218 72.4544 23.6752C72.4544 24.3438 72.675 24.8979 73.1161 25.3391C73.5572 25.7802 74.1057 26.1376 74.7618 26.4126C75.4179 26.6876 76.3406 27.003 77.5341 27.3603C79.1547 27.8377 80.4794 28.3137 81.504 28.7911C82.5286 29.2685 83.4108 29.9833 84.1506 30.9381C84.8891 31.8915 85.259 33.1435 85.259 34.6944C85.259 36.0303 84.9128 37.2699 84.2218 38.4145C83.5295 39.5591 82.5161 40.4706 81.1816 41.1504C79.8457 41.8302 78.26 42.1695 76.4243 42.1695C74.6837 42.1695 73.1161 41.8707 71.7202 41.2747H71.7216Z" fill="#7575EA"/>
<path d="M96.517 22.6927C97.6491 22.0841 98.9431 21.7812 100.398 21.7812C102.091 21.7812 103.622 22.1986 104.994 23.0333C106.365 23.8681 107.45 25.0546 108.25 26.5929C109.048 28.1312 109.447 29.9137 109.447 31.9406C109.447 33.9674 109.048 35.7626 108.25 37.3246C107.45 38.8866 106.365 40.0968 104.994 40.9553C103.622 41.8138 102.091 42.2424 100.398 42.2424C98.9431 42.2424 97.6616 41.9436 96.5519 41.3476C95.4436 40.7515 94.5432 40.0005 93.8508 39.0946V51.3632H88.8438V22.1037H93.8508V24.9653C94.4943 24.0594 95.3835 23.3014 96.5156 22.6942L96.517 22.6927ZM103.6 28.8445C103.111 27.9749 102.466 27.3132 101.668 26.8595C100.869 26.4072 100.004 26.1797 99.0743 26.1797C98.1446 26.1797 97.3155 26.4114 96.517 26.8776C95.7186 27.3425 95.0736 28.0167 94.5851 28.8989C94.0965 29.7811 93.8522 30.8183 93.8522 32.0104C93.8522 33.2025 94.0965 34.241 94.5851 35.1218C95.0736 36.0041 95.7172 36.6783 96.517 37.1431C97.3155 37.6079 98.1684 37.8411 99.0743 37.8411C99.9802 37.8411 100.868 37.6024 101.668 37.1264C102.466 36.649 103.11 35.9706 103.6 35.0869C104.088 34.2047 104.333 33.155 104.333 31.9392C104.333 30.7234 104.088 29.7156 103.6 28.8445V28.8445Z" fill="#7575EA"/>
<path d="M117.552 15.4492V41.9182H112.544V15.4492H117.552Z" fill="#7575EA"/>
<path d="M122.109 18.9002C121.524 18.3405 121.232 17.6425 121.232 16.8078C121.232 15.973 121.524 15.2765 122.109 14.7153C122.693 14.1556 123.427 13.875 124.309 13.875C125.191 13.875 125.924 14.1556 126.509 14.7153C127.092 15.2765 127.386 15.973 127.386 16.8078C127.386 17.6425 127.094 18.3405 126.509 18.9002C125.924 19.4614 125.191 19.7406 124.309 19.7406C123.427 19.7406 122.693 19.46 122.109 18.9002ZM126.777 22.101V41.9172H121.77V22.101H126.777Z" fill="#7575EA"/>
<path d="M147.685 24.0526C149.139 25.5435 149.867 27.6233 149.867 30.2937V41.9187H144.86V30.9735C144.86 29.4003 144.466 28.1901 143.679 27.3428C142.891 26.4968 141.818 26.0725 140.46 26.0725C139.101 26.0725 137.986 26.4968 137.186 27.3428C136.386 28.1901 135.989 29.4003 135.989 30.9735V41.9187H130.981V22.1025H135.989V24.5705C136.656 23.712 137.509 23.0378 138.546 22.5493C139.583 22.0607 140.722 21.8164 141.962 21.8164C144.322 21.8164 146.23 22.5618 147.685 24.0526V24.0526Z" fill="#7575EA"/>
<path d="M165.652 41.9182L158.928 33.4773V41.9182H153.92V15.4492H158.928V30.5082L165.58 22.102H172.091L163.362 32.0465L172.162 41.9182H165.652V41.9182Z" fill="#7575EA"/>
</svg>
