<svg width="100" height="100" viewBox="0 0 100 100" fill="none" xmlns="http://www.w3.org/2000/svg">
<rect x="3.5" y="3.5" width="93" height="93" fill="#0D1010"/>
<path d="M55.017 27.4545H63.3807V60.1818C63.3655 63.1818 62.7292 65.7652 61.4716 67.9318C60.214 70.0833 58.4564 71.7424 56.1989 72.9091C53.9564 74.0606 51.3428 74.6364 48.358 74.6364C45.6307 74.6364 43.1761 74.1515 40.9943 73.1818C38.8277 72.197 37.108 70.7424 35.8352 68.8182C34.5625 66.8939 33.9261 64.5 33.9261 61.6364H42.3125C42.3277 62.8939 42.6004 63.9773 43.1307 64.8864C43.6761 65.7955 44.4261 66.4924 45.3807 66.9773C46.3352 67.4621 47.4337 67.7045 48.6761 67.7045C50.0246 67.7045 51.1686 67.4242 52.108 66.8636C53.0473 66.2879 53.7595 65.4394 54.2443 64.3182C54.7443 63.197 55.0019 61.8182 55.017 60.1818V27.4545Z" fill="#97F36B"/>
<rect x="3.5" y="3.5" width="93" height="93" stroke="#97F36B" stroke-width="7"/>
</svg>
