<svg width="400" height="300" viewBox="0 0 400 300" fill="none" xmlns="http://www.w3.org/2000/svg">
<path d="M188.477 157.067C188.477 154.147 188.892 151.617 189.723 149.427C190.554 147.237 191.63 145.412 192.974 143.977C194.318 142.517 195.858 141.422 197.618 140.667C199.353 139.913 201.162 139.548 202.995 139.548C207.297 139.548 210.694 140.984 213.187 143.831C215.68 146.677 216.927 150.863 216.927 156.41C216.927 156.946 216.902 157.554 216.878 158.186L216.78 159.914H197.3C197.496 161.836 198.327 163.345 199.769 164.464C201.235 165.583 203.19 166.143 205.635 166.143C207.199 166.143 208.763 165.997 210.279 165.681C211.794 165.364 213.016 164.975 213.994 164.537L215.142 172.08C214.678 172.323 214.067 172.567 213.309 172.834C212.552 173.078 211.696 173.297 210.743 173.491C209.814 173.686 208.788 173.832 207.712 173.954C206.637 174.075 205.561 174.148 204.486 174.148C201.773 174.148 199.402 173.71 197.373 172.834C195.369 171.958 193.683 170.766 192.363 169.258C191.043 167.749 190.065 165.948 189.43 163.856C188.794 161.715 188.477 159.476 188.477 157.067ZM208.861 153.49C208.885 153.49 208.885 153.466 208.885 153.466L208.25 151.179C208.03 150.425 207.712 149.768 207.272 149.184C206.832 148.6 206.27 148.113 205.61 147.748C204.95 147.383 204.095 147.188 203.117 147.188C202.164 147.188 201.333 147.359 200.649 147.724C199.964 148.089 199.378 148.551 198.913 149.135C198.449 149.719 198.107 150.4 197.838 151.154L197.08 153.49H208.861Z" fill="black"/>
<path d="M233.279 173.832C230.786 173.783 227.657 173.491 226.093 172.956C224.528 172.421 223.306 171.666 222.402 170.669C221.498 169.696 220.887 168.503 220.569 167.116C220.251 165.729 220.08 164.148 220.08 162.396V126.287L228.659 124.779V160.522C228.659 161.35 228.708 162.104 228.83 162.761C228.952 163.418 229.172 163.978 229.49 164.44C229.808 164.902 230.297 165.267 230.908 165.559L233.181 166.63C233.254 166.654 233.279 166.727 233.279 166.8V173.832Z" fill="black"/>
<path d="M247.65 131.738C247.65 133.319 247.137 134.56 246.135 135.46C245.108 136.361 243.911 136.823 242.542 136.823C241.149 136.823 239.951 136.361 238.949 135.46C237.922 134.56 237.434 133.319 237.434 131.738C237.434 130.156 237.947 128.915 238.949 128.015C239.976 127.114 241.173 126.652 242.542 126.652C243.935 126.652 245.133 127.114 246.135 128.015C247.137 128.915 247.65 130.156 247.65 131.738Z" fill="#1A99D6"/>
<path d="M266.25 149.597L272.263 140.4H281.135L270.625 156.362C273.045 159.355 275.172 162.347 277.054 165.292C278.911 168.26 280.427 170.888 281.551 173.2H272.336C272.019 172.567 271.628 171.788 271.188 170.864C270.723 169.939 270.21 168.941 269.623 167.919C269.037 166.898 268.45 166.046 267.815 165.34C267.155 164.61 266.519 163.953 265.908 163.345L264.197 165.194C263.586 165.851 263.024 166.654 262.486 167.627C261.949 168.601 261.411 169.574 260.898 170.523C260.384 171.472 259.92 172.372 259.504 173.2H250.779C251.268 172.178 251.903 170.961 252.685 169.525C253.467 168.09 254.347 166.63 255.276 165.121C256.229 163.613 257.231 162.128 258.331 160.717C259.431 159.282 260.507 157.943 261.558 156.702C259.676 153.807 257.867 151.009 256.132 148.332C254.396 145.656 252.685 143.003 250.974 140.4H260.238L266.25 149.597Z" fill="black"/>
<path d="M295.067 168.844C295.067 170.499 294.529 171.764 293.478 172.64C292.427 173.516 291.23 173.954 289.885 173.954C288.541 173.954 287.343 173.516 286.292 172.64C285.241 171.764 284.704 170.499 284.704 168.844C284.704 167.19 285.241 165.924 286.292 165.048C287.343 164.172 288.541 163.734 289.885 163.734C291.23 163.734 292.427 164.172 293.478 165.048C294.529 165.9 295.067 167.165 295.067 168.844Z" fill="#D91B5C"/>
<path d="M150.91 134.828C150.91 138.259 148.123 141.033 144.677 141.033C141.231 141.033 138.444 138.259 138.444 134.828C138.444 131.397 141.231 128.623 144.677 128.623C148.123 128.623 150.91 131.397 150.91 134.828Z" fill="#1A99D6"/>
<path d="M135.291 134.828C135.291 138.259 132.505 141.033 129.059 141.033C125.613 141.033 122.826 138.259 122.826 134.828C122.826 131.397 125.613 128.623 129.059 128.623C132.505 128.623 135.291 131.397 135.291 134.828Z" fill="#1A99D6"/>
<path d="M107.208 135.169C107.012 131.738 109.652 128.818 113.098 128.623C116.545 128.429 119.478 131.056 119.673 134.463C119.869 137.894 117.229 140.814 113.783 141.008C110.336 141.203 107.403 138.575 107.208 135.169Z" fill="#1A99D6"/>
<path d="M135.291 150.96C135.291 154.391 132.505 157.165 129.059 157.165C125.613 157.165 122.826 154.391 122.826 150.96C122.826 147.529 125.613 144.755 129.059 144.755C132.505 144.755 135.291 147.529 135.291 150.96Z" fill="#D91B5C"/>
<path d="M119.673 167.117C119.673 170.547 116.887 173.321 113.441 173.321C109.994 173.321 107.208 170.547 107.208 167.117C107.208 163.686 109.994 160.912 113.441 160.912C116.887 160.912 119.673 163.686 119.673 167.117Z" fill="#00558F"/>
<path d="M119.673 150.96C119.673 154.391 116.887 157.165 113.441 157.165C109.994 157.165 107.208 154.391 107.208 150.96C107.208 147.529 109.994 144.755 113.441 144.755C116.887 144.755 119.673 147.529 119.673 150.96Z" fill="#D91B5C"/>
<path d="M246.893 140.4H238.265V173.127H246.893V140.4Z" fill="black"/>
<path d="M184.42 146.385C184.346 146.385 184.273 146.385 184.224 146.385H170.659V137.042H186.79C186.79 137.042 186.79 137.042 186.815 137.042V128.623H160.54V173.224H170.634V154.804H184.029C184.151 154.804 184.297 154.804 184.42 154.78V146.385Z" fill="black"/>
<path d="M288.81 129.183V130.132H287.368V134.293H286.17V130.107H284.728V129.158C284.728 129.183 288.81 129.183 288.81 129.183Z" fill="black"/>
<path d="M292.061 132.224C292.11 132.322 292.134 132.419 292.183 132.516C292.232 132.419 292.256 132.322 292.305 132.224C292.354 132.127 292.403 132.03 292.452 131.932L293.772 129.353C293.796 129.305 293.821 129.28 293.845 129.256C293.869 129.232 293.894 129.207 293.918 129.207C293.943 129.207 293.992 129.183 294.016 129.183C294.041 129.183 294.089 129.183 294.163 129.183H295.067V134.293H294.016V131.348C294.016 131.202 294.016 131.056 294.041 130.886L292.672 133.514C292.623 133.587 292.574 133.66 292.501 133.709C292.427 133.757 292.354 133.782 292.256 133.782H292.085C291.987 133.782 291.914 133.757 291.841 133.709C291.767 133.66 291.719 133.611 291.67 133.514L290.301 130.886C290.301 130.959 290.325 131.056 290.325 131.129C290.325 131.202 290.325 131.275 290.325 131.348V134.293H289.274V129.183H290.179C290.228 129.183 290.277 129.183 290.325 129.183C290.374 129.183 290.399 129.183 290.423 129.207C290.448 129.207 290.472 129.232 290.496 129.256C290.521 129.28 290.545 129.305 290.57 129.353L291.89 131.957C291.963 132.03 292.012 132.127 292.061 132.224Z" fill="black"/>
</svg>
