<svg width="172" height="46" viewBox="0 0 172 46" fill="none" xmlns="http://www.w3.org/2000/svg">
<rect width="172" height="46" fill="white"/>
<path d="M76.376 29.825C76.376 27.1914 76.7388 24.9089 77.4643 22.9337C78.1899 20.9586 79.1288 19.3126 80.3025 18.0177C81.4762 16.7009 82.8206 15.7133 84.3571 15.033C85.8723 14.3526 87.4514 14.0234 89.0519 14.0234C92.8077 14.0234 95.774 15.3183 97.9507 17.886C100.127 20.4538 101.216 24.2286 101.216 29.2324C101.216 29.7152 101.194 30.2639 101.173 30.8345L101.088 32.3927H84.0797C84.2504 34.1265 84.976 35.4872 86.235 36.4967C87.5154 37.5063 89.2226 38.011 91.3566 38.011C92.7224 38.011 94.0881 37.8794 95.4112 37.594C96.7343 37.3087 97.8013 36.9576 98.6549 36.5626L99.6579 43.366C99.2524 43.5855 98.7189 43.8049 98.0574 44.0463C97.3958 44.2658 96.6489 44.4633 95.8167 44.6389C95.0058 44.8145 94.1095 44.9461 93.1705 45.0559C92.2316 45.1656 91.2926 45.2315 90.3536 45.2315C87.9849 45.2315 85.9149 44.8364 84.1437 44.0463C82.3938 43.2563 80.9214 42.1809 79.769 40.8202C78.6167 39.4595 77.7631 37.8355 77.2082 35.9481C76.6534 34.0168 76.376 31.9977 76.376 29.825ZM94.1735 26.5988C94.1948 26.5988 94.1948 26.5769 94.1948 26.5769L93.64 24.5139C93.4479 23.8336 93.1705 23.241 92.7864 22.7143C92.4023 22.1876 91.9115 21.7486 91.3353 21.4194C90.7591 21.0902 90.0122 20.9147 89.1586 20.9147C88.3263 20.9147 87.6008 21.0683 87.0033 21.3975C86.4058 21.7267 85.8936 22.1437 85.4881 22.6704C85.0827 23.1971 84.7839 23.8116 84.5492 24.4919L83.8876 26.5988H94.1735Z" fill="black"/>
<path d="M115.491 44.9474C113.315 44.9035 110.583 44.6401 109.217 44.1573C107.852 43.6745 106.785 42.9942 105.995 42.0943C105.205 41.2165 104.672 40.1411 104.395 38.8901C104.117 37.6392 103.968 36.2127 103.968 34.6325V2.06381L111.458 0.703125V32.9426C111.458 33.6888 111.501 34.3692 111.607 34.9617C111.714 35.5543 111.906 36.059 112.184 36.476C112.461 36.893 112.888 37.2222 113.421 37.4856L115.406 38.4512C115.47 38.4732 115.491 38.539 115.491 38.6048V44.9474Z" fill="black"/>
<path d="M128.039 6.97746C128.039 8.40398 127.591 9.52326 126.716 10.3353C125.82 11.1473 124.774 11.5643 123.579 11.5643C122.363 11.5643 121.317 11.1473 120.442 10.3353C119.546 9.52326 119.119 8.40398 119.119 6.97746C119.119 5.55093 119.567 4.43166 120.442 3.61963C121.338 2.80761 122.384 2.39062 123.579 2.39062C124.796 2.39062 125.841 2.80761 126.716 3.61963C127.591 4.43166 128.039 5.55093 128.039 6.97746Z" fill="#1A99D6"/>
<path d="M144.28 23.0888L149.529 14.793H157.276L148.1 29.1899C150.212 31.8893 152.069 34.5888 153.712 37.2443C155.334 39.9218 156.657 42.292 157.638 44.3769H149.593C149.316 43.8063 148.974 43.104 148.59 42.2701C148.185 41.4361 147.737 40.5363 147.225 39.6145C146.712 38.6928 146.2 37.9246 145.645 37.2882C145.069 36.6298 144.514 36.0372 143.981 35.4886L142.487 37.1565C141.954 37.7491 141.463 38.4733 140.993 39.3512C140.524 40.229 140.054 41.1069 139.606 41.9628C139.158 42.8187 138.753 43.6308 138.39 44.3769H130.771C131.198 43.4552 131.753 42.3579 132.436 41.063C133.119 39.7682 133.887 38.4514 134.698 37.0907C135.53 35.73 136.405 34.3913 137.366 33.1183C138.326 31.8235 139.265 30.6164 140.182 29.4972C138.539 26.8855 136.96 24.3617 135.445 21.9475C133.93 19.5334 132.436 17.1413 130.942 14.793H139.03L144.28 23.0888Z" fill="black"/>
<path d="M169.439 40.4486C169.439 41.941 168.969 43.0822 168.052 43.8723C167.134 44.6624 166.088 45.0574 164.915 45.0574C163.741 45.0574 162.695 44.6624 161.778 43.8723C160.86 43.0822 160.391 41.941 160.391 40.4486C160.391 38.9563 160.86 37.815 161.778 37.025C162.695 36.2349 163.741 35.8398 164.915 35.8398C166.088 35.8398 167.134 36.2349 168.052 37.025C168.969 37.7931 169.439 38.9343 169.439 40.4486Z" fill="#D91B5C"/>
<path d="M43.5758 9.76434C43.5758 12.8588 41.143 15.3607 38.1341 15.3607C35.1251 15.3607 32.6924 12.8588 32.6924 9.76434C32.6924 6.66988 35.1251 4.16797 38.1341 4.16797C41.143 4.16797 43.5758 6.66988 43.5758 9.76434Z" fill="#1A99D6"/>
<path d="M29.94 9.76434C29.94 12.8588 27.5073 15.3607 24.4983 15.3607C21.4894 15.3607 19.0566 12.8588 19.0566 9.76434C19.0566 6.66988 21.4894 4.16797 24.4983 4.16797C27.5073 4.16797 29.94 6.66988 29.94 9.76434Z" fill="#1A99D6"/>
<path d="M5.42004 10.0729C5.24932 6.97848 7.55403 4.34489 10.563 4.16931C13.5719 3.99374 16.1327 6.36397 16.3034 9.43649C16.4741 12.531 14.1694 15.1645 11.1605 15.3401C8.15155 15.5157 5.59076 13.1455 5.42004 10.0729Z" fill="#1A99D6"/>
<path d="M29.94 24.3151C29.94 27.4096 27.5073 29.9115 24.4983 29.9115C21.4894 29.9115 19.0566 27.4096 19.0566 24.3151C19.0566 21.2207 21.4894 18.7188 24.4983 18.7188C27.5073 18.7188 29.94 21.2207 29.94 24.3151Z" fill="#D91B5C"/>
<path d="M16.3033 38.8893C16.3033 41.9838 13.8705 44.4857 10.8616 44.4857C7.85268 44.4857 5.41992 41.9838 5.41992 38.8893C5.41992 35.7949 7.85268 33.293 10.8616 33.293C13.8705 33.293 16.3033 35.7949 16.3033 38.8893Z" fill="#00558F"/>
<path d="M16.3033 24.3151C16.3033 27.4096 13.8705 29.9115 10.8616 29.9115C7.85268 29.9115 5.41992 27.4096 5.41992 24.3151C5.41992 21.2207 7.85268 18.7188 10.8616 18.7188C13.8705 18.7188 16.3033 21.2207 16.3033 24.3151Z" fill="#D91B5C"/>
<path d="M127.378 14.793H119.845V44.3111H127.378V14.793Z" fill="black"/>
<path d="M72.8335 20.189C72.7695 20.189 72.7055 20.189 72.6628 20.189H60.8191V11.7615H74.9035C74.9035 11.7615 74.9035 11.7615 74.9248 11.7615V4.16797H51.9844V44.396H60.7978V27.7825H72.4921C72.5988 27.7825 72.7268 27.7825 72.8335 27.7605V20.189Z" fill="black"/>
<path d="M163.976 4.67429V5.53021H162.717V9.28307H161.671V5.50826H160.412V4.65234C160.412 4.67429 163.976 4.67429 163.976 4.67429Z" fill="black"/>
<path d="M166.814 7.4191C166.856 7.50689 166.878 7.59467 166.92 7.68246C166.963 7.59467 166.984 7.50689 167.027 7.4191C167.07 7.33132 167.112 7.24353 167.155 7.15574L168.307 4.82941C168.329 4.78551 168.35 4.76357 168.371 4.74162C168.393 4.71967 168.414 4.69773 168.435 4.69773C168.457 4.69773 168.499 4.67578 168.521 4.67578C168.542 4.67578 168.585 4.67578 168.649 4.67578H169.438V9.28456H168.521V6.62903C168.521 6.49735 168.521 6.36567 168.542 6.21204L167.347 8.58227C167.304 8.64811 167.262 8.71395 167.198 8.75784C167.134 8.80174 167.07 8.82368 166.984 8.82368H166.835C166.75 8.82368 166.686 8.80174 166.622 8.75784C166.558 8.71395 166.515 8.67006 166.472 8.58227L165.277 6.21204C165.277 6.27788 165.298 6.36567 165.298 6.43151C165.298 6.49735 165.298 6.56319 165.298 6.62903V9.28456H164.381V4.67578H165.17C165.213 4.67578 165.256 4.67578 165.298 4.67578C165.341 4.67578 165.362 4.67578 165.384 4.69773C165.405 4.69773 165.427 4.71967 165.448 4.74162C165.469 4.76357 165.491 4.78551 165.512 4.82941L166.664 7.17769C166.728 7.24353 166.771 7.33132 166.814 7.4191Z" fill="black"/>
</svg>
